# xmcd
#
# Track frame offsets: 
#        150
#        15263
#        32288
#        48900
#        67275
#        86026
#        99564
#        116176
#        133501
#        148801
#        165451
#        182251
#        198563
#        217238
#        234526
#        252863
#
# Disc length: 3585 seconds
#
# Revision: 0
# Processed by: cddbd v1.5.2PL0 Copyright (c) Steve Scherf et al.
# Submitted via: ExactAudioCopyFreeDBPlugin 1.0
#
DISCID=e00dff10
DTITLE=สันติ ดวงสว่าง - รวม 16 ต้นฉบับเพลงฮิตที่ดีที่สุด
DYEAR=2016
DGENRE=Country
TTITLE0=ถอนคำสาบาน
TTITLE1=มนต์รักดอนหอยหลอด
TTITLE2=จดหมายเปื้อนน้ำตา
TTITLE3=แนวหน้าลาแฟน
TTITLE4=รักนี้มีกรรม
TTITLE5=โรคประหลาด
TTITLE6=ให้ฉันตายก่อนที่รัก
TTITLE7=น้ำตาสิบล้อ
TTITLE8=ยอมตายที่ตาพระยา
TTITLE9=แหม่มปลาร้า
TTITLE10=เรือนหอน้ำตา
TTITLE11=เก็บเศษแก้ว
TTITLE12=ช้ำรักมหาชัย
TTITLE13=คนึงนอนนครสวรรค์
TTITLE14=ไร่อ้อยคอยรัก
TTITLE15=ไม่ลืมท่ายาง
EXTD=
EXTT0=
EXTT1=
EXTT2=
EXTT3=
EXTT4=
EXTT5=
EXTT6=
EXTT7=
EXTT8=
EXTT9=
EXTT10=
EXTT11=
EXTT12=
EXTT13=
EXTT14=
EXTT15=
PLAYORDER=
